<?xml version="1.0" encoding="UTF-8"?>
<svg width="16px" height="19px" viewBox="0 0 16 19" version="1.1" xmlns="http://www.w3.org/2000/svg" xmlns:xlink="http://www.w3.org/1999/xlink">
    <!-- Generator: Sketch 59 (86127) - https://sketch.com -->
    <title>年检代办</title>
    <desc>Created with Sketch.</desc>
    <g id="页面-1" stroke="none" stroke-width="1" fill="none" fill-rule="evenodd">
        <g id="详情页-车辆信息" transform="translate(-25.000000, -546.000000)" fill-rule="nonzero">
            <g id="wrap" transform="translate(-1.000000, 288.000000)">
                <g id="编组-5">
                    <g id="编组-8备份-2" transform="translate(14.000000, 246.000000)">
                        <g id="li备份-7" transform="translate(8.000000, 11.000000)">
                            <g id="年检代办">
                                <rect id="矩形" fill="#000000" opacity="0" x="0" y="0" width="24" height="24"></rect>
                                <polygon id="路径" points="1.71428571 0 22.2857143 0 22.2857143 20.5714286 1.71428571 20.5714286"></polygon>
                                <path d="M11.7891429,1.10528571 C11.9225827,1.06021504 12.0671316,1.06021504 12.2005714,1.10528571 L19.0624286,3.41957142 C19.3238427,3.50766186 19.5,3.75271407 19.5,4.02857142 L19.5,11.9142857 C19.5,14.2607143 17.0785714,16.713 12.3192857,19.416 C12.1226501,19.5276984 11.8817864,19.5278611 11.685,19.4164286 C6.92271429,16.719 4.5,14.2662857 4.5,11.9142857 L4.5,4.02857142 C4.5,3.75282725 4.675898,3.50780955 4.93714287,3.41957142 L11.7891429,1.10528571 Z M10.1717143,5.41542858 L9.13028571,5.41542858 L9.13028571,6.54171429 L8.19685713,6.54171429 L8.19685713,7.506 L8.814,7.506 C8.78255881,7.73064923 8.7452604,7.9544397 8.70214287,8.17714287 C8.66012152,8.39590934 8.61124028,8.6133022 8.55557142,8.829 C8.50157142,9.03728571 8.44371429,9.23142858 8.382,9.41142858 C8.33571429,9.54642858 8.28771429,9.66985716 8.23885713,9.78171429 L8.18914287,9.88971429 L8.18914287,11.8182857 C8.39935118,11.552557 8.57677292,11.262466 8.71757142,10.9542857 C8.84314284,10.6868571 8.95628571,10.4031428 9.057,10.1027143 L9.13028571,9.87428571 L9.13028571,13.0602857 L10.1717143,13.0602857 L10.1717143,9.87428571 C10.29,10.26 10.4262857,10.62 10.5805714,10.9542857 C10.7018719,11.2223851 10.8520452,11.4764581 11.0284286,11.712 L11.1128571,11.8182857 L11.1128571,9.88971429 C11.0392543,9.73420276 10.9748575,9.57449869 10.92,9.41142858 C10.8582857,9.23142858 10.8004286,9.03728571 10.7464286,8.829 C10.6924286,8.62071429 10.6435714,8.40342858 10.5998571,8.17714287 L10.5372857,7.83985713 L10.4802857,7.506 L11.1051429,7.506 L11.1051429,6.54171429 L10.1717143,6.54171429 L10.1717143,5.41542858 L10.1717143,5.41542858 Z M15.8031429,12.0574286 L11.2825714,12.0574286 L11.2825714,12.9831429 L15.8031429,12.9831429 L15.8031429,12.0574286 Z M13.9517143,9.34971429 L12.9334286,9.34971429 C12.99,9.73028571 13.035,10.1121429 13.0684286,10.4952857 C13.0937143,10.7824286 13.1104286,11.0721428 13.1198571,11.364 L13.1262857,11.6562857 L14.1522857,11.6562857 C14.1473125,11.268614 14.1267244,10.8813 14.0905714,10.4952857 C14.0665803,10.2399359 14.0380042,9.98503765 14.0048571,9.73071429 L13.9517143,9.34971429 L13.9517143,9.34971429 Z M15.7105714,9.34971429 L14.6922857,9.34971429 C14.674514,10.0260537 14.609066,10.7002977 14.4964286,11.3674286 L14.4454286,11.6562857 L15.4714286,11.6562857 C15.5382857,11.2705714 15.5922857,10.8861428 15.6334286,10.503 C15.6642857,10.2158571 15.6865714,9.92742858 15.6998571,9.63857142 L15.7105714,9.34971429 Z M12.3934286,9.34971429 L11.3751429,9.34971429 C11.4317143,9.73028571 11.4767143,10.1121429 11.5101429,10.4952857 C11.5354286,10.7824286 11.5521429,11.0721428 11.5615714,11.364 L11.568,11.6562857 L12.5862857,11.6562857 C12.5813065,11.2687052 12.5620076,10.881441 12.5284286,10.4952857 C12.5061476,10.2399008 12.4787134,9.98499177 12.4461429,9.73071429 L12.3934286,9.34971429 Z M15.6797143,7.95342858 L11.406,7.95342858 L11.406,8.87914287 L15.6797143,8.87914287 L15.6797143,7.95342858 Z M14.1214286,5.44628571 L12.9642857,5.44628571 C12.796419,5.75290198 12.5518832,6.01072774 12.2545714,6.19457142 C12.0027904,6.35254485 11.7339359,6.48150877 11.4531429,6.579 L11.2825714,6.63428571 L11.2825714,7.70657142 C11.7182777,7.60619245 12.138583,7.44792933 12.5322857,7.236 C12.9148088,7.03188196 13.2551162,6.7570183 13.5351429,6.426 C13.8160209,6.75769614 14.1577267,7.03263181 14.5418571,7.236 C14.9370935,7.44754186 15.3586196,7.60577628 15.7954286,7.70657142 L15.7954286,6.63428571 C15.4558358,6.53135501 15.131533,6.38347292 14.8311429,6.19457142 C14.567509,6.03144293 14.3449167,5.80987702 14.1805714,5.547 L14.1214286,5.44628571 L14.1214286,5.44628571 Z" id="形状" fill="#FA6400"></path>
                            </g>
                        </g>
                    </g>
                </g>
            </g>
        </g>
    </g>
</svg>