<?xml version="1.0" encoding="UTF-8"?>
<svg width="307px" height="259px" viewBox="0 0 307 259" version="1.1" xmlns="http://www.w3.org/2000/svg" xmlns:xlink="http://www.w3.org/1999/xlink">
    <!-- Generator: Sketch 59 (86127) - https://sketch.com -->
    <title>编组 3</title>
    <desc>Created with Sketch.</desc>
    <defs>
        <polygon id="path-1" points="0 84.6458333 50.8341633 84.6458333 50.8341633 0.00708333333 0 0.00708333333"></polygon>
        <path d="M2.91344196,77.9594595 C2.11410998,77.9604189 1.46537678,78.6042162 1.46537678,79.3986486 L1.46537678,145.601351 C1.46537678,146.395784 2.11410998,147.040541 2.91344196,147.040541 L156.086558,147.040541 C156.88589,147.040541 157.534623,146.395784 157.534623,145.601351 L157.534623,79.3986486 C157.534623,78.6042162 156.88589,77.9604189 156.086558,77.9594595 L2.91344196,77.9594595 Z" id="path-3"></path>
        <filter x="-4.5%" y="-10.1%" width="117.9%" height="140.5%" filterUnits="objectBoundingBox" id="filter-4">
            <feOffset dx="10" dy="10" in="SourceAlpha" result="shadowOffsetOuter1"></feOffset>
            <feGaussianBlur stdDeviation="2" in="shadowOffsetOuter1" result="shadowBlurOuter1"></feGaussianBlur>
            <feColorMatrix values="0 0 0 0 0   0 0 0 0 0   0 0 0 0 0  0 0 0 0.05 0" type="matrix" in="shadowBlurOuter1"></feColorMatrix>
        </filter>
        <path d="M70.1717139,38.7504535 C69.2867268,38.7504535 68.5695876,39.2552115 68.5686211,39.8770886 L68.5686211,56.1213201 C68.5686211,56.7431972 69.2867268,57.2473187 70.1717139,57.2479552 L145.828286,57.2479552 C146.713273,57.2479552 147.431057,56.7431972 147.431057,56.1213201 L147.431057,39.8777251 C147.431057,39.255848 146.713273,38.7517266 145.828286,38.75109 L70.1717139,38.7504535 Z" id="path-5"></path>
        <filter x="-5.7%" y="-24.3%" width="122.8%" height="197.3%" filterUnits="objectBoundingBox" id="filter-6">
            <feOffset dx="5" dy="5" in="SourceAlpha" result="shadowOffsetOuter1"></feOffset>
            <feGaussianBlur stdDeviation="2" in="shadowOffsetOuter1" result="shadowBlurOuter1"></feGaussianBlur>
            <feColorMatrix values="0 0 0 0 0   0 0 0 0 0   0 0 0 0 0  0 0 0 0.1 0" type="matrix" in="shadowBlurOuter1"></feColorMatrix>
        </filter>
        <linearGradient x1="50%" y1="0%" x2="50%" y2="98.7700591%" id="linearGradient-7">
            <stop stop-color="#EEEEEE" stop-opacity="0.5" offset="0%"></stop>
            <stop stop-color="#D8D8D8" stop-opacity="0" offset="100%"></stop>
        </linearGradient>
        <polygon id="path-8" points="0.211111111 0.0297869565 9.92138889 0.0297869565 9.92138889 13 0.211111111 13"></polygon>
    </defs>
    <g id="PC" stroke="none" stroke-width="1" fill="none" fill-rule="evenodd">
        <g id="登录" transform="translate(-357.000000, -314.000000)">
            <g id="编组" transform="translate(-1.000000, 0.000000)">
                <g id="编组-3" transform="translate(357.000000, 313.000000)">
                    <g id="编组" transform="translate(58.000000, 0.500000)">
                        <path d="M182.921006,122.5 L5.07899376,122.5 C2.55111169,122.497239 0.502775148,120.459261 0.5,117.944162 L0.5,8.8379108 C0.501942603,6.99541938 2.0027425,5.50220889 3.85459858,5.5 L184.087401,5.5 C185.971171,5.50220889 187.49778,7.02109774 187.5,8.89561809 L187.5,117.944162 C187.497225,120.459261 185.448611,122.497239 182.921006,122.5" id="Fill-1" fill="#F2F2F2"></path>
                        <path d="M177.107683,116.5 L11.8923173,116.5 C9.4704293,116.5 7.5,114.643216 7.5,112.36107 L7.5,16.5696784 C7.5,14.8771378 8.96004855,13.5 10.7548184,13.5 L178.191239,13.5 C180.015608,13.5 181.5,14.8996865 181.5,16.6200649 L181.5,112.36107 C181.5,114.643216 179.529571,116.5 177.107683,116.5" id="Fill-3" fill="#FFFFFF"></path>
                        <path d="M187.5,7.5 L0.5,7.5 L0.5,5.14328657 C0.503607681,2.57923848 2.55943102,0.501963928 5.09563101,0.5 L182.904091,0.5 C185.440291,0.501963928 187.496115,2.57923848 187.5,5.14328657 L187.5,7.5 Z" id="Fill-5" fill="#555555"></path>
                        <path d="M10.5,3.5 C11.0524165,3.5 11.5,3.94758347 11.5,4.5 C11.5,5.05241653 11.0524165,5.5 10.5,5.5 C9.94758347,5.5 9.5,5.05241653 9.5,4.5 C9.5,3.94758347 9.94758347,3.5 10.5,3.5" id="Fill-7" fill="#FFFFFF"></path>
                        <path d="M13.5,3.5 C14.0524165,3.5 14.5,3.94758347 14.5,4.5 C14.5,5.05241653 14.0524165,5.5 13.5,5.5 C12.9475835,5.5 12.5,5.05241653 12.5,4.5 C12.5,3.94758347 12.9475835,3.5 13.5,3.5" id="Fill-9" fill="#FFFFFF"></path>
                        <path d="M18.5,3.5 C19.0524165,3.5 19.5,3.94758347 19.5,4.5 C19.5,5.05241653 19.0524165,5.5 18.5,5.5 C17.9475835,5.5 17.5,5.05241653 17.5,4.5 C17.5,3.94758347 17.9475835,3.5 18.5,3.5" id="Fill-11" fill="#FFFFFF"></path>
                        <polygon id="Fill-13" fill="#E6E6E6" points="20.5 118.567962 21.4363679 118.339022 21.5 118.432038 20.5640966 118.660978"></polygon>
                        <polygon id="Fill-15" fill="#E6E6E6" points="5.5 135.567962 6.43636786 135.339022 6.5 135.432038 5.56409661 135.660978"></polygon>
                    </g>
                    <g id="编组" transform="translate(76.500000, 22.500000)">
                        <polygon id="Fill-1" fill="#F2F2F2" points="1.5 39.5 51.5 39.5 51.5 0.5 1.5 0.5"></polygon>
                        <polygon id="Fill-2" fill="#FFFFFF" points="4.5 36.5 50.5 36.5 50.5 1.5 4.5 1.5"></polygon>
                        <g transform="translate(0.500000, 0.500000)">
                            <path d="M26.4776388,28.1648917 C26.4835367,28.1648917 26.4894347,28.1648917 26.4956796,28.1645375 C33.157598,27.8089542 38.2759857,22.00735 37.9273122,15.2062875 C37.6098633,9.00837083 32.8290469,4.0171 26.765598,3.55385 C26.6892714,3.54782917 26.6136388,3.57439167 26.5570878,3.62787083 C26.5008837,3.67993333 26.4689653,3.75395417 26.4682714,3.83151667 L26.2038924,27.8801417 C26.2025163,28.035975 26.3253327,28.163475 26.4776388,28.1648917" id="Fill-3" fill="#3F3D56"></path>
                            <path d="M17.0042327,7.53053958 C17.0982531,7.53160208 17.1877633,7.57091458 17.2540286,7.63962292 L25.3640694,16.1059771 C25.4296408,16.1743313 25.4660694,16.2667688 25.4650503,16.3627479 L25.3383959,27.8703313 C25.337702,27.9698521 25.2960694,28.0651229 25.2235592,28.1320604 C25.151049,28.2004146 25.0546,28.2344146 24.9564163,28.2273313 C18.260151,27.7155604 13.2382122,21.7595396 13.7391918,14.9237688 C13.9366,12.2324563 14.9878245,9.67997708 16.7339673,7.65343542 C16.7991918,7.57799792 16.8925184,7.53337292 16.991049,7.53053958 C16.9955592,7.53053958 16.9997224,7.53053958 17.0042327,7.53053958" id="Fill-5" fill="#E6E6E6"></path>
                            <path d="M25.2508286,3.45553333 C25.3417265,3.45659583 25.4284612,3.49272083 25.4936857,3.556825 C25.5644612,3.62553333 25.6040122,3.72186667 25.6026598,3.82174167 L25.4888286,14.2044917 C25.4864,14.4042417 25.3261143,14.5639708 25.1304408,14.5618668 C25.0364204,14.5607833 24.9469102,14.521825 24.8813388,14.4531167 L17.8041347,7.06484583 C17.6674408,6.9217625 17.6698694,6.6922625 17.8103796,6.55272083 C17.8141959,6.54811667 17.8187061,6.54422083 17.8235633,6.53997083 C19.8812571,4.69086667 22.4909306,3.60392917 25.2289714,3.4558875 C25.2362571,3.45553333 25.2435429,3.45553333 25.2508286,3.45553333" id="Fill-7" fill="#FA6400"></path>
                            <path d="M21.6052653,33.1519479 C21.5917347,34.3748854 20.609551,35.3552188 19.4115714,35.3417604 C18.2135918,35.3279479 17.2529184,34.3253021 17.266449,33.1023646 C17.2796327,31.8790729 18.2618163,30.8987396 19.4597959,30.9125521 C20.6577755,30.9274271 21.6170612,31.9293646 21.6052653,33.1519479" id="Fill-9" fill="#FA6400"></path>
                            <path d="M27.8033959,33.2228521 C27.7902122,34.4457896 26.8080286,35.4264771 25.609702,35.4126646 C24.4117224,35.3988521 23.451049,34.3962063 23.4645796,33.1732688 C23.4781102,31.9499771 24.4602939,30.9696438 25.6582735,30.9834563 C26.8562531,30.9983313 27.8155388,32.0002688 27.8033959,33.2228521" id="Fill-11" fill="#3F3D56"></path>
                            <path d="M34.0018735,33.2937563 C33.9883429,34.5170479 33.0061592,35.4973813 31.8081796,35.4835688 C30.6102,35.4697563 29.6495265,34.4671104 29.6630571,33.2441729 C29.6762408,32.0208813 30.6584245,31.0405479 31.856751,31.0543604 C33.0543837,31.0692354 34.0140163,32.0711729 34.0018735,33.2937563" id="Fill-13" fill="#E6E6E6"></path>
                            <mask id="mask-2" fill="white">
                                <use xlink:href="#path-1"></use>
                            </mask>
                            <g id="Clip-16"></g>
                            <polygon id="Fill-15" fill="#F2F2F2" mask="url(#mask-2)" points="0 84.6461875 50.3047347 84.6461875 50.3047347 45.4137292 0 45.4137292"></polygon>
                            <polygon id="Fill-17" fill="#FFFFFF" mask="url(#mask-2)" points="2.49969388 82.6965 47.8053878 82.6965 47.8053878 47.3630625 2.49969388 47.3630625"></polygon>
                            <path d="M10.1864347,55.1353563 C11.2255163,55.1353563 12.0678837,55.9952729 12.0678837,57.0556479 C12.0678837,58.1163771 11.2255163,58.9759396 10.1864347,58.9759396 C9.1477,58.9759396 8.30533265,58.1163771 8.30533265,57.0556479 C8.30533265,55.9952729 9.1477,55.1353563 10.1864347,55.1353563" id="Fill-18" fill="#3F3D56" mask="url(#mask-2)"></path>
                            <path d="M40.4110816,55.2423849 L20.626898,55.2423849 C19.7494898,55.2416771 19.0379184,55.9666563 19.0372233,56.8623438 C19.0361837,57.7576771 19.7463673,58.4840729 20.6237755,58.4847824 L20.626898,58.4847824 L40.4110816,58.4847824 C41.2881429,58.4858438 42.0000612,57.7605104 42.0007556,56.8651771 C42.001449,55.9698438 41.2912653,55.2430938 40.4142041,55.2423849 L40.4110816,55.2423849 Z M40.4110816,55.561487 C41.1157143,55.5600729 41.6878163,56.1423229 41.6892066,56.8612813 C41.6905918,57.5805938 41.1202245,58.1646146 40.4159388,58.1660313 L40.4110816,58.1660313 L20.626898,58.1660313 C19.9219184,58.1660313 19.3508571,57.5827188 19.3508571,56.8637604 C19.3508571,56.1444479 19.9219184,55.561487 20.626898,55.561487 L40.4110816,55.561487 L40.4110816,55.561487 Z" id="Fill-19" fill="#3F3D56" mask="url(#mask-2)"></path>
                            <path d="M32.6046469,58.4848907 L17.7109122,58.4848907 C16.833851,58.4866583 16.1215857,57.7620333 16.119849,56.8667 C16.1184633,55.9710125 16.8283,55.2439083 17.7053612,55.2424917 L17.7109122,55.2424917 L32.6046469,55.2424917 C33.4817082,55.2439083 34.191198,55.9710125 34.1898122,56.8667 C34.1880755,57.7599083 33.4792796,58.4834708 32.6046469,58.4848907" id="Fill-20" fill="#FA6400" mask="url(#mask-2)"></path>
                            <path d="M10.1864347,63.1094542 C11.2255163,63.1094542 12.0678837,63.9690167 12.0678837,65.0297458 C12.0678837,66.090475 11.2255163,66.9500375 10.1864347,66.9500375 C9.1477,66.9500375 8.30533265,66.090475 8.30533265,65.0297458 C8.30533265,63.9690167 9.1477,63.1094542 10.1864347,63.1094542" id="Fill-21" fill="#3F3D56" mask="url(#mask-2)"></path>
                            <path d="M40.4110816,63.2165188 L20.626898,63.2165188 C19.7494898,63.2165188 19.0382653,63.9422063 19.0382653,64.8378938 C19.0382653,65.7332271 19.7494898,66.4589146 20.626898,66.4589146 L40.4110816,66.4589146 C41.2881429,66.4589146 41.9993673,65.7332271 41.9993673,64.8378938 C41.9993673,63.9422063 41.2881429,63.2165188 40.4110816,63.2165188 M40.4110816,63.5352673 C41.1157143,63.5342063 41.6878163,64.1161021 41.6892066,64.8354146 C41.6905918,65.5547271 41.1202245,66.1387479 40.4159388,66.1401646 L40.4110816,66.1401646 L20.626898,66.1401646 C19.9219184,66.1401646 19.3508571,65.5568521 19.3508571,64.8378938 C19.3508571,64.1185813 19.9219184,63.5352673 20.626898,63.5352673 L40.4110816,63.5352673" id="Fill-22" fill="#3F3D56" mask="url(#mask-2)"></path>
                            <path d="M38.2284898,66.4589875 L17.7108776,66.4589875 C16.8338163,66.4604021 16.121551,65.7357771 16.1198143,64.8404438 C16.1184286,63.9451104 16.8282653,63.2180063 17.7053265,63.2165896 L17.7108776,63.2165896 L38.2284898,63.2165896 C39.105551,63.2180063 39.8153878,63.9451104 39.814002,64.8404438 C39.8122653,65.7336521 39.1034694,66.4575688 38.2284898,66.4589875" id="Fill-23" fill="#FA6400" mask="url(#mask-2)"></path>
                            <path d="M10.1864347,71.0834104 C11.2255163,71.0834104 12.0678837,71.9433271 12.0678837,73.0037021 C12.0678837,74.0644313 11.2255163,74.9239937 10.1864347,74.9239937 C9.1477,74.9239937 8.30533265,74.0644313 8.30533265,73.0037021 C8.30533265,71.9433271 9.1477,71.0834104 10.1864347,71.0834104" id="Fill-24" fill="#3F3D56" mask="url(#mask-2)"></path>
                            <path d="M40.4110816,71.1904396 L20.626898,71.1904396 C19.7494898,71.1904396 19.0382653,71.9164813 19.0382653,72.8118146 C19.0382653,73.7071479 19.7494898,74.4328354 20.626898,74.4328354 L40.4110816,74.4328354 C41.2881429,74.4328354 41.9993673,73.7071479 41.9993673,72.8118146 C41.9993673,71.9164813 41.2881429,71.1904396 40.4110816,71.1904396 M40.4110816,71.5095412 C41.1157143,71.5081271 41.6878163,72.0903771 41.6892066,72.8093354 C41.6905918,73.5286479 41.1202245,74.1126688 40.4159388,74.1140854 L40.4110816,74.1140854 L20.626898,74.1140854 C19.9219184,74.1140854 19.3508571,73.5307729 19.3508571,72.8118146 C19.3508571,72.0925021 19.9219184,71.5095412 20.626898,71.5095412 L40.4110816,71.5095412" id="Fill-25" fill="#3F3D56" mask="url(#mask-2)"></path>
                            <path d="M26.0429592,74.4329449 L17.7108776,74.4329449 C16.8338163,74.4347125 16.121551,73.7100875 16.1198152,72.8147542 C16.1187755,71.9190667 16.8282653,71.1919625 17.7053265,71.1905458 L17.7108776,71.1905458 L26.0429592,71.1905458 C26.9200204,71.1919625 27.6298571,71.9190667 27.6281256,72.8147542 C27.6267347,73.7079625 26.9179388,74.431525 26.0429592,74.4329449" id="Fill-26" fill="#FA6400" mask="url(#mask-2)"></path>
                        </g>
                    </g>
                    <g id="编组" transform="translate(136.000000, 28.000000)">
                        <g id="路径">
                            <use fill="black" fill-opacity="1" filter="url(#filter-4)" xlink:href="#path-3"></use>
                            <use fill="#FFFFFF" fill-rule="evenodd" xlink:href="#path-3"></use>
                        </g>
                        <g id="路径">
                            <use fill="black" fill-opacity="1" filter="url(#filter-6)" xlink:href="#path-5"></use>
                            <use fill="#FFFFFF" fill-rule="evenodd" xlink:href="#path-5"></use>
                        </g>
                        <path d="M2.91344196,77.9594595 C2.11410998,77.9604189 1.46537678,78.6042162 1.46537678,79.3986486 L1.46537678,145.601351 C1.46537678,146.395784 2.11410998,147.040541 2.91344196,147.040541 L156.086558,147.040541 C156.88589,147.040541 157.534623,146.395784 157.534623,145.601351 L157.534623,79.3986486 C157.534623,78.6042162 156.88589,77.9604189 156.086558,77.9594595 L2.91344196,77.9594595 Z M2.91344196,148 C1.581222,147.998721 0.5,146.925405 0.5,145.601351 L0.5,79.3986486 C0.5,78.0745946 1.581222,77.0015991 2.91344196,77 L156.086558,77 C157.4191,77.0015991 158.498391,78.0745946 158.5,79.3986486 L158.5,145.601351 C158.498391,146.925405 157.4191,147.998721 156.086558,148 L2.91344196,148 Z" id="Fill-1" fill="#E6E6E6"></path>
                        <path d="M9.9375,85 C9.14368056,85 8.5,85.6716667 8.5,86.5 C8.5,87.3283333 9.14368056,88 9.9375,88 L30.0625,88 C30.8563194,88 31.5,87.3283333 31.5,86.5 C31.5,85.6716667 30.8563194,85 30.0625,85 L9.9375,85 Z" id="Fill-3" fill="#E6E6E6"></path>
                        <path d="M148.5,94.5688113 L148.5,121 L11.5,121 L11.5,107.08363 C12.4487396,106.485319 13.4032839,105.889541 14.3662127,105.313717 C18.4791376,102.841603 22.8813281,100.529757 27.6795255,99.6729899 C29.9485031,99.2574341 32.2732698,99.228928 34.5522443,99.5887385 C36.9598888,99.9792723 39.2643392,100.793914 41.5455711,101.611089 C43.7951997,102.420346 46.051278,103.254625 48.4041007,103.723709 C50.6972643,104.165871 53.0513769,104.211481 55.3603421,103.858638 C59.765435,103.209649 63.9041584,101.470776 68.0254678,99.8975548 C72.1728982,98.3160987 76.4460962,96.8217447 80.9343892,96.6250525 C85.365603,96.4283603 89.7419951,97.4564809 93.9465046,98.7319713 C102.519022,101.330462 111.272451,105.184806 120.349328,102.541339 C129.566485,99.8611303 138.044515,92.1248868 148.259429,94.419946 C148.356173,94.4373664 148.441953,94.4908945 148.5,94.5688113" id="Fill-5" fill="#E6E6E6"></path>
                        <path d="M148.434049,95.0296998 C148.344507,95.1957262 148.150605,95.2793731 147.965723,95.2321633 C146.749813,94.9577761 145.504593,94.8316721 144.257763,94.8554354 C134.221922,95.0296998 126.506132,102.976788 116.693502,104.165588 C107.846192,105.236205 99.5190652,101.004116 91.2003131,98.7925426 C86.878118,97.6433483 82.4216091,97.0334231 77.9734748,97.8147611 C73.5601267,98.5875443 69.4179827,100.363457 65.2584456,101.940074 C61.2535142,103.457441 57.0910783,104.868032 52.7547109,104.938054 C47.9870581,105.016949 43.6932074,103.083565 39.2711627,101.610873 C36.9714031,100.844109 34.6117339,100.237036 32.1750839,100.178103 C29.8002762,100.149904 27.4370639,100.509839 25.1817534,101.243016 C20.4823848,102.712857 16.2487659,105.331892 12.1269139,107.934134 C12.056053,107.982928 11.9700535,108.005741 11.8840541,107.99877 C11.6418386,107.966769 11.4714502,107.74783 11.5039818,107.509563 C11.5207308,107.385993 11.5906254,107.275415 11.6953064,107.206343 L11.8840541,107.08816 C12.8294035,106.489641 13.7805505,105.893657 14.7407162,105.317634 C18.8400215,102.844664 23.2279241,100.532018 28.0100712,99.6749539 C30.2715014,99.2592542 32.5889762,99.2307382 34.8603914,99.5906733 C37.2600004,99.9813423 39.5568611,100.796266 41.830531,101.613724 C44.0729576,102.423261 46.321504,103.257829 48.666679,103.727076 C50.9522663,104.16939 53.2987297,104.215016 55.5997776,103.862051 C59.990579,103.212837 64.115974,101.473362 68.2239759,99.8995965 C72.3574233,98.317593 76.6164878,96.8227216 81.0903898,96.6259613 C85.5069588,96.429201 89.8690938,97.4576776 94.0598741,98.7332927 C102.604093,101.333 111.328685,105.188678 120.375694,102.544296 C129.562815,99.8631594 138.012982,92.1242376 148.194088,94.4200914 C148.290717,94.4375178 148.376394,94.4910645 148.434049,94.5690082 C148.522947,94.7090534 148.521015,94.8883872 148.434049,95.0296998" id="Fill-7" fill="#FA6400"></path>
                        <path d="M30.5001611,98 C31.6047757,98 32.5,98.8952243 32.5,99.9998389 C32.5,101.104776 31.6047757,102 30.5001611,102 C29.3955464,102 28.5,101.104776 28.5,99.9998389 C28.5,98.8952243 29.3955464,98 30.5001611,98" id="Fill-9" fill="#FA6400"></path>
                        <path d="M81.5001611,96 C82.6047757,96 83.5,96.8955464 83.5,98.0001611 C83.5,99.1047757 82.6047757,100 81.5001611,100 C80.3955464,100 79.5,99.1047757 79.5,98.0001611 C79.5,96.8955464 80.3955464,96 81.5001611,96" id="Fill-11" fill="#FA6400"></path>
                        <path d="M142.499839,93 C143.604454,93 144.5,93.8955464 144.5,95.0001611 C144.5,96.1047757 143.604454,97 142.499839,97 C141.395224,97 140.5,96.1047757 140.5,95.0001611 C140.5,93.8955464 141.395224,93 142.499839,93" id="Fill-13" fill="#FA6400"></path>
                        <path d="M29.9375,133 C29.1436806,133 28.5,133.671667 28.5,134.5 C28.5,135.328333 29.1436806,136 29.9375,136 L50.0625,136 C50.8563194,136 51.5,135.328333 51.5,134.5 C51.5,133.671667 50.8563194,133 50.0625,133 L29.9375,133 Z" id="Fill-15" fill="#E6E6E6"></path>
                        <path d="M16,129 C19.0376176,129 21.5,131.462059 21.5,134.5 C21.5,137.537618 19.0376176,140 16,140 C12.9623824,140 10.5,137.537618 10.5,134.5 C10.5,131.462059 12.9623824,129 16,129" id="Fill-17" fill="#FA6400"></path>
                        <path d="M78.9375,133 C78.1436806,133 77.5,133.671667 77.5,134.5 C77.5,135.328333 78.1436806,136 78.9375,136 L99.0625,136 C99.8563194,136 100.5,135.328333 100.5,134.5 C100.5,133.671667 99.8563194,133 99.0625,133 L78.9375,133 Z" id="Fill-19" fill="#E6E6E6"></path>
                        <path d="M65,129 C68.0376176,129 70.5,131.462059 70.5,134.5 C70.5,137.537618 68.0376176,140 65,140 C61.9623824,140 59.5,137.537618 59.5,134.5 C59.5,131.462059 61.9623824,129 65,129" id="Fill-21" fill="#FA6400"></path>
                        <path d="M126.9375,133 C126.143681,133 125.5,133.671667 125.5,134.5 C125.5,135.328333 126.143681,136 126.9375,136 L147.0625,136 C147.856319,136 148.5,135.328333 148.5,134.5 C148.5,133.671667 147.856319,133 147.0625,133 L126.9375,133 Z" id="Fill-23" fill="#E6E6E6"></path>
                        <path d="M114,129 C117.037618,129 119.5,131.462059 119.5,134.5 C119.5,137.537618 117.037618,140 114,140 C110.962382,140 108.5,137.537618 108.5,134.5 C108.5,131.462059 110.962382,129 114,129" id="Fill-25" fill="#FA6400"></path>
                        <path d="M70.1717139,38.7504535 C69.2867268,38.7504535 68.5695876,39.2552115 68.5686211,39.8770886 L68.5686211,56.1213201 C68.5686211,56.7431972 69.2867268,57.2473187 70.1717139,57.2479552 L145.828286,57.2479552 C146.713273,57.2479552 147.431057,56.7431972 147.431057,56.1213201 L147.431057,39.8777251 C147.431057,39.255848 146.713273,38.7517266 145.828286,38.75109 L70.1717139,38.7504535 Z M145.828286,58 L70.1717139,58 C68.6968428,58 67.5016108,57.1588428 67.5,56.1222749 L67.5,39.8777251 C67.5016108,38.8411572 68.6968428,38 70.1717139,38 L145.828286,38 C147.303157,38 148.498389,38.8411572 148.5,39.8777251 L148.5,56.1219567 C148.498711,57.1585246 147.303157,57.998727 145.828286,58 L145.828286,58 Z" id="Fill-27" fill="#E6E6E6"></path>
                        <path d="M87.1137566,48 C86.222963,48.0009333 85.501291,48.6968889 85.5,49.5555556 L85.5,60.4444444 C85.501291,61.3031111 86.222963,61.9990667 87.1137566,62 L144.886243,62 C145.77736,61.9990667 146.499032,61.3031111 146.5,60.4444444 L146.5,49.5555556 C146.499032,48.6968889 145.77736,48.0009333 144.886243,48 L87.1137566,48 Z" id="Fill-29" fill="#FA6400"></path>
                        <path d="M96,52 C97.9329545,52 99.5,53.5670455 99.5,55.5 C99.5,57.4329545 97.9329545,59 96,59 C94.0670455,59 92.5,57.4329545 92.5,55.5 C92.5,53.5670455 94.0670455,52 96,52" id="Fill-31" fill="#FFFFFF"></path>
                        <path d="M111.9375,53 C111.143681,53 110.5,53.6716667 110.5,54.5 C110.5,55.3283333 111.143681,56 111.9375,56 L132.0625,56 C132.856319,56 133.5,55.3283333 133.5,54.5 C133.5,53.6716667 132.856319,53 132.0625,53 L111.9375,53 Z" id="Fill-33" fill="#FFFFFF"></path>
                        <path d="M14.1717139,0.750453518 C13.2867268,0.750453518 12.5695876,1.25521148 12.5686211,1.87708857 L12.5686211,18.1213201 C12.5686211,18.7431972 13.2867268,19.2473187 14.1717139,19.2479552 L89.8282861,19.2479552 C90.7132732,19.2479552 91.4310567,18.7431972 91.4310567,18.1213201 L91.4310567,1.87772509 C91.4310567,1.255848 90.7132732,0.751726552 89.8282861,0.751090035 L14.1717139,0.750453518 Z M89.8282861,20 L14.1717139,20 C12.6968428,20 11.5016108,19.1588428 11.5,18.1222749 L11.5,1.87772509 C11.5016108,0.841157188 12.6968428,0 14.1717139,0 L89.8282861,0 C91.3031572,0 92.4983892,0.841157188 92.5,1.87772509 L92.5,18.1219567 C92.4987113,19.1585246 91.3031572,19.998727 89.8282861,20 L89.8282861,20 Z" id="Fill-35" fill="#E6E6E6"></path>
                        <path d="M31.1137566,10 C30.222963,10.0009333 29.501291,10.6968889 29.5,11.5555556 L29.5,22.4444444 C29.501291,23.3031111 30.222963,23.9990667 31.1137566,24 L88.8862434,24 C89.7773598,23.9990667 90.4990317,23.3031111 90.5,22.4444444 L90.5,11.5555556 C90.4990317,10.6968889 89.7773598,10.0009333 88.8862434,10 L31.1137566,10 Z" id="Fill-37" fill="#FA6400"></path>
                        <path d="M39,13 C40.9329545,13 42.5,14.5670455 42.5,16.5 C42.5,18.4329545 40.9329545,20 39,20 C37.0670455,20 35.5,18.4329545 35.5,16.5 C35.5,14.5670455 37.0670455,13 39,13" id="Fill-39" fill="#FFFFFF"></path>
                        <path d="M54.9375,15 C54.1436806,15 53.5,15.6716667 53.5,16.5 C53.5,17.3283333 54.1436806,18 54.9375,18 L75.0625,18 C75.8563194,18 76.5,17.3283333 76.5,16.5 C76.5,15.6716667 75.8563194,15 75.0625,15 L54.9375,15 Z" id="Fill-41" fill="#FFFFFF"></path>
                    </g>
                    <polygon id="矩形" fill="url(#linearGradient-7)" points="34.4017808 216 105.380648 216 145.630859 261 0.9921875 261"></polygon>
                    <g id="编组" transform="translate(28.500000, 160.000000)">
                        <path d="M6.5595181,49 C4.87047471,49.0017605 3.50149844,50.3418124 3.5,51.995531 L3.5,59.0041756 C3.50149844,60.6578941 4.87047471,61.9979461 6.5595181,62 L10.4404819,62 C12.1292256,61.9979461 13.4982019,60.6578941 13.5,59.0041756 L13.5,51.995531 C13.4982019,50.3418124 12.1292256,49.0017605 10.4404819,49 L6.5595181,49 Z" id="Fill-1" fill="#3F3D56"></path>
                        <g transform="translate(68.500000, 49.000000)">
                            <mask id="mask-9" fill="white">
                                <use xlink:href="#path-8"></use>
                            </mask>
                            <g id="Clip-4"></g>
                            <path d="M6.86472222,13.000113 L3.26777778,13.000113 C1.58055556,12.9981348 0.213055556,11.6068522 0.211111111,9.89000435 L0.211111111,3.13961304 C0.213055556,1.42304783 1.58055556,0.0317652174 3.26777778,0.0297869565 L6.86472222,0.0297869565 C8.55222222,0.0317652174 9.91972222,1.42304783 9.92138889,3.13961304 L9.92138889,9.89000435 C9.91972222,11.6068522 8.55222222,12.9978522 6.86472222,13.000113" id="Fill-3" fill="#3F3D56" mask="url(#mask-9)"></path>
                        </g>
                        <path d="M73.187067,56 L8.81322171,56 C5.88366051,56 3.5,54.2372961 3.5,52.0703078 L3.5,39.4349447 L6.6954388,36 L75.9263857,36 L78.5,39.4423114 L78.5,52.0703078 C78.5,54.2372961 76.1166282,56 73.187067,56" id="Fill-5" fill="#CCCCCC"></path>
                        <polygon id="Fill-7" fill="#CCCCCC" points="75.8026893 43 7.19702184 43 6.5 32.3865787 6.94340179 31.3005449 9.52235372 25 73.0131576 25 76.5 32.1545741"></polygon>
                        <polygon id="Fill-9" fill="#FFFFFF" points="76.5 31.8940532 75.9752156 40 60.5 40 60.5 33.9783313 76.0599156 31"></polygon>
                        <polygon id="Fill-11" fill="#FFFFFF" points="21.5 33.9471594 21.5 40 6.99706943 40 6.5 32.0847469 6.92324166 31"></polygon>
                        <path d="M72.5,26 L9.5,26 L16.2192263,3.61405679 C16.7820631,1.71594036 18.5213447,0.409354264 20.502298,0.397465664 L62.225038,0 C64.2994105,-0.0197951877 66.1207967,1.3752305 66.6404052,3.38266404 L72.5,26 Z" id="Fill-13" fill="#CCCCCC"></path>
                        <path d="M67.0654469,24 L13.9242896,23.3474521 C13.6871453,23.344757 13.4971406,23.1432235 13.5,22.8976701 C13.5,22.8533507 13.5072626,22.8093307 13.5205658,22.7671075 L18.6148314,6.30903799 C18.6718039,6.12487291 18.8369373,6 19.0237608,6 L61.7664274,6 C61.9526725,6 62.1180951,6.12487291 62.1750676,6.30873853 L67.4792927,23.4196208 C67.551882,23.6531961 67.4275258,23.9035408 67.2016603,23.9787041 C67.1574126,23.9933774 67.111719,24.0005643 67.0654469,24" id="Fill-15" fill="#FFFFFF"></path>
                        <path d="M9.5,26 L0.5,26 L0.5,23.7470107 C0.50138147,22.2306482 1.58030945,21.001888 2.91204642,21 L9.5,21 L9.5,26 Z" id="Fill-17" fill="#CCCCCC"></path>
                        <path d="M81.5,26 L72.5,26 L72.5,21 L79.0879536,21 C80.4194143,21.001888 81.4983422,22.2306482 81.5,23.7470107 L81.5,26 Z" id="Fill-19" fill="#CCCCCC"></path>
                    </g>
                </g>
            </g>
        </g>
    </g>
</svg>