<?xml version="1.0" encoding="UTF-8"?>
<svg width="14px" height="14px" viewBox="0 0 14 14" version="1.1" xmlns="http://www.w3.org/2000/svg" xmlns:xlink="http://www.w3.org/1999/xlink">
    <!-- Generator: Sketch 59 (86127) - https://sketch.com -->
    <title>notice</title>
    <desc>Created with Sketch.</desc>
    <g id="PC" stroke="none" stroke-width="1" fill="none" fill-rule="evenodd">
        <g id="反向二手车统一发票" transform="translate(-314.000000, -247.000000)" fill-rule="nonzero">
            <g id="编组-8" transform="translate(279.000000, 150.000000)">
                <g id="process" transform="translate(16.000000, 16.000000)">
                    <g id="编组-5" transform="translate(0.000000, 34.000000)">
                        <g id="编组-7">
                            <g id="notice" transform="translate(18.000000, 46.000000)">
                                <rect id="矩形" fill="#000000" opacity="0" x="0" y="0" width="16" height="16"></rect>
                                <path d="M4.5015625,10.946875 C4.734375,10.946875 4.909375,11.0046875 5.084375,11.121875 C5.084375,11.121875 8.58125,13.7984375 8.58125,13.7390625 L8.58125,2.278125 L5.084375,4.9546875 C4.909375,5.0703125 4.734375,5.1296875 4.5015625,5.1296875 L2.16875,5.1296875 L2.16875,10.946875 L4.5015625,10.946875 Z M9.746875,10.30625 C10.7375,10.0734375 11.4953125,9.1421875 11.4953125,8.0375 C11.4953125,6.9328125 10.7375,6.059375 9.746875,5.76875 L9.746875,10.30625 Z M9.746875,4.6046875 C11.3796875,4.8953125 12.6609375,6.2921875 12.6609375,8.0375 C12.6609375,9.7828125 11.378125,11.1796875 9.746875,11.4703125 L9.746875,13.7390625 C9.746875,14.4953125 9.221875,15.01875 8.58125,15.01875 C8.40625,15.01875 8.2890625,14.9609375 8.115625,14.903125 L4.5015625,12.109375 L2.16875,12.109375 C1.528125,12.109375 1.003125,11.64375 1.003125,10.9453125 L1.003125,5.128125 C1.003125,4.4296875 1.528125,3.9640625 2.16875,3.9640625 L4.5,3.9640625 L8.1140625,1.1734375 C8.2890625,1.115625 8.40625,1.0578125 8.5796875,1.0578125 C9.2203125,1.0578125 9.7453125,1.58125 9.7453125,2.3375 L9.7453125,4.6046875 L9.746875,4.6046875 Z M10.9703125,3.0921875 C11.1453125,2.8015625 11.4359375,2.684375 11.728125,2.8015625 C13.709375,3.790625 14.9921875,5.76875 14.9921875,8.0375 C14.9921875,10.30625 13.76875,12.284375 11.728125,13.2734375 C11.6703125,13.33125 11.553125,13.33125 11.4953125,13.33125 C11.2625,13.33125 11.0875,13.215625 10.9703125,12.9828125 C10.853125,12.6921875 10.9703125,12.3421875 11.2625,12.2265625 C12.8359375,11.4125 13.8265625,9.8421875 13.8265625,8.0375 C13.8265625,6.234375 12.8359375,4.6640625 11.2625,3.8484375 C10.9703125,3.7328125 10.8546875,3.3828125 10.9703125,3.0921875 Z" id="形状" fill="#FA6400"></path>
                            </g>
                        </g>
                    </g>
                </g>
            </g>
        </g>
    </g>
</svg>