<?xml version="1.0" encoding="UTF-8"?>
<svg width="32px" height="32px" viewBox="0 0 32 32" version="1.1" xmlns="http://www.w3.org/2000/svg" xmlns:xlink="http://www.w3.org/1999/xlink">
    <!-- Generator: Sketch 59 (86127) - https://sketch.com -->
    <title>car</title>
    <desc>Created with Sketch.</desc>
    <g id="页面-1" stroke="none" stroke-width="1" fill="none" fill-rule="evenodd">
        <g id="我要卖车-交易信息" transform="translate(-66.000000, -96.000000)">
            <g id="tab" transform="translate(54.000000, 96.000000)">
                <g id="编组">
                    <g id="编组-3">
                        <g id="car" transform="translate(12.000000, 0.000000)">
                            <circle id="椭圆形" fill-opacity="0.2" fill="#999999" cx="16" cy="16" r="16"></circle>
                            <circle id="椭圆形" fill="#999999" cx="16" cy="16" r="13"></circle>
                            <g id="汽车" transform="translate(8.000000, 7.000000)" fill-rule="nonzero">
                                <rect id="矩形" fill="#000000" opacity="0" x="0" y="0" width="16" height="16"></rect>
                                <path d="M13.9888,6.24896 L12.75392,6.24896 C12.6976,6.24992 12.64192,6.26496 12.59296,6.29216 L12.03648,4.61888 C11.85888,3.66752 11.1872,3.20768 10.36256,3.20768 L5.1328,3.20768 C4.1856,3.20768 3.61088,3.824 3.45856,4.61792 L2.90048,6.29664 C2.84874258,6.26582775 2.78981166,6.24916377 2.7296,6.24832 L1.49504,6.24832 C1.40391985,6.24815012 1.31646891,6.28420651 1.25194716,6.3485482 C1.1874254,6.4128899 1.15104,6.50023973 1.15104,6.59136 L1.15104,6.88896 C1.15104,7.07808 1.30496,7.23232 1.49504,7.23232 L1.96224,7.31232 C1.80534476,7.6223672 1.7259573,7.96583051 1.73088,8.31328 L1.55776,10.28768 C1.55776,10.34464 1.56192,10.40288 1.56896,10.46176 C1.56204033,10.4987057 1.55829334,10.5361756 1.55776,10.57376 L1.55776,12.94912 C1.55776,13.28736 1.83232,13.5609613 2.1712,13.5609613 L3.1072,13.5609613 C3.26975062,13.5612998 3.42576928,13.4970087 3.5408901,13.382248 C3.65601092,13.2674873 3.7207905,13.1116709 3.72096,12.94912 L3.72096,12.18624 L11.77408,12.18624 L11.77408,12.94912 C11.77408,13.28736 12.04864,13.5609613 12.38752,13.5609613 L13.32416,13.5609613 C13.4866552,13.5612148 13.6425916,13.4968862 13.7576432,13.3821347 C13.8726948,13.2673832 13.9374304,13.1116153 13.9376,12.94912 L13.9376,10.57344 C13.9376,10.536 13.93344,10.49856 13.92608,10.46176 C13.93312,10.40288 13.9376,10.34464 13.9376,10.28736 L13.76416,8.31296 C13.76416,7.92864 13.67968,7.59936 13.53184,7.31072 L13.98848,7.23328 C14.079711,7.23353507 14.1672927,7.19747239 14.231893,7.13305223 C14.2964933,7.06863207 14.3328,6.98115131 14.3328,6.88992 L14.3328,6.59232 C14.3319207,6.40267841 14.1781233,6.24930981 13.98848,6.24896 L13.9888,6.24896 Z M3.87072,5.89792 L4.27936,4.81248 L4.28448,4.78688 C4.32512,4.568 4.41568,4.52832 4.55008,4.35936 L10.94944,4.35936 C11.08512,4.53344 11.1696,4.5776 11.2064,4.78528 L11.62208,5.89888 L11.7744,6.50368 C11.73984,6.94624 11.2064,7.29568 10.76384,7.29568 L4.72896,7.29568 C4.28544,7.29568 3.752,6.94624 3.71776,6.50336 L3.87072,5.89792 L3.87072,5.89792 Z M4.1568,11.06016 C3.8188243,11.0552838 3.51022972,10.8670295 3.35124617,10.5687417 C3.19226261,10.270454 3.20803751,9.90931487 3.39242488,9.62602588 C3.57681225,9.34273689 3.90064639,9.18210762 4.23776,9.20672 C4.73838761,9.24327039 5.11920851,9.67127196 5.09730331,10.1727539 C5.07539811,10.6742358 4.65870786,11.0674013 4.1568,11.06016 L4.1568,11.06016 Z M9.34752,10.37632 C9.34699111,10.5286407 9.22336157,10.65184 9.07104,10.65184 L6.464,10.65184 C6.31180279,10.65184 6.18822462,10.5288356 6.18752,10.37664 L6.18752,9.60192 C6.18752,9.4496 6.31168,9.3264 6.464,9.3264 L9.07104,9.3264 C9.22336,9.3264 9.34752,9.4496 9.34752,9.6016 L9.34752,10.37632 L9.34752,10.37632 Z M11.336,11.0601614 C11.0898236,11.0605847 10.853566,10.9631767 10.6792229,10.7893737 C10.5048798,10.6155708 10.4067392,10.3796165 10.4064,10.13344 C10.4067392,9.8872635 10.5048798,9.65130922 10.6792229,9.47750626 C10.853566,9.30370329 11.0898236,9.20629532 11.336,9.20671862 C11.582121,9.20638029 11.8182964,9.30382579 11.9925703,9.47761955 C12.1668441,9.65141331 12.2649408,9.88731903 12.26528,10.13344 C12.2642208,10.6458137 11.8483746,11.0605142 11.336,11.0601614 L11.336,11.0601614 Z" id="形状" fill="#FFFFFF"></path>
                            </g>
                        </g>
                    </g>
                </g>
            </g>
        </g>
    </g>
</svg>