<?xml version="1.0" encoding="UTF-8"?>
<svg width="32px" height="32px" viewBox="0 0 32 32" version="1.1" xmlns="http://www.w3.org/2000/svg" xmlns:xlink="http://www.w3.org/1999/xlink">
    <!-- Generator: Sketch 59 (86127) - https://sketch.com -->
    <title>car</title>
    <desc>Created with Sketch.</desc>
    <g id="小程序" stroke="none" stroke-width="1" fill="none" fill-rule="evenodd">
        <g id="我要卖车-车辆信息" transform="translate(-278.000000, -96.000000)">
            <g id="tab" transform="translate(54.000000, 96.000000)">
                <g id="编组">
                    <g id="编组-3备份" transform="translate(212.000000, 0.000000)">
                        <g id="car" transform="translate(12.000000, 0.000000)">
                            <circle id="椭圆形" fill-opacity="0.2" fill="#999999" cx="16" cy="16" r="16"></circle>
                            <circle id="椭圆形" fill="#999999" cx="16" cy="16" r="13"></circle>
                            <g id="交易列表" transform="translate(8.000000, 8.000000)" fill-rule="nonzero">
                                <rect id="矩形" fill="#000000" opacity="0" x="0" y="0" width="16" height="16"></rect>
                                <path d="M13.3865625,8.6190625 C13.0659375,8.54203125 12.74875,8.7365625 12.67125,9.05375 C12.1501563,11.1915625 10.2479688,12.6842187 8.04453125,12.6842187 C5.9240625,12.6842187 4.03984375,11.260625 3.46296875,9.22265625 C3.45875,9.2075 3.4475,9.19703125 3.4421875,9.1825 C3.42671875,9.13953125 3.4053125,9.10203125 3.38109375,9.06421875 C3.3646875,9.039375 3.3503125,9.0146875 3.33046875,8.9928125 C3.2946875,8.95125 3.253125,8.91921875 3.2075,8.88921875 C3.1925,8.8796875 3.17890625,8.86921875 3.16296875,8.8609375 C3.11515625,8.83578125 3.0653125,8.82125 3.01125,8.81125 C2.9825,8.8053125 2.95515625,8.8009375 2.925625,8.79921875 C2.90828125,8.79890625 2.8928125,8.790625 2.87515625,8.7921875 C2.85015625,8.79296875 2.82921875,8.8046875 2.80515625,8.80859375 C2.780625,8.81234375 2.7565625,8.80734375 2.7321875,8.81421875 C2.71671875,8.81859375 2.7059375,8.82984375 2.69140625,8.8353125 C2.6528125,8.84953125 2.619375,8.8684375 2.585,8.89 C2.55296875,8.91 2.5225,8.92921875 2.495625,8.954375 C2.4678125,8.98 2.44625,9.00859375 2.42390625,9.0390625 C2.40109375,9.07015625 2.37984375,9.10015625 2.3634375,9.135 C2.34796875,9.1678125 2.33921875,9.201875 2.3296875,9.2375 C2.31921875,9.27734375 2.31125,9.31578125 2.30921875,9.3575 C2.30859375,9.37296875 2.30125,9.38625 2.30169725,9.401875 L2.3753125,11.7920312 C2.385,12.1126562 2.648125,12.3659375 2.9665625,12.3659375 C2.97265625,12.3659375 2.97890625,12.3659375 2.985,12.365625 C3.300625,12.3559375 3.54515625,12.0995312 3.553125,11.7878125 C4.65984375,13.0676562 6.2803125,13.8682812 8.04453125,13.8682812 C10.7954688,13.8682812 13.1710938,12.00375 13.82125,9.33453125 C13.89875,9.01640625 13.7042188,8.69625 13.3865625,8.6190625 L13.3865625,8.6190625 Z M13.2829687,3.96203125 C13.046875,3.96203125 12.8467187,4.1028125 12.7517187,4.30265625 C11.6504687,2.88 9.928125,1.97765625 8.0446875,1.97765625 C5.30453125,1.97765625 2.93125,3.83328125 2.2734375,6.49015625 C2.19484375,6.80734375 2.38828125,7.1284375 2.70578125,7.20703125 C3.0240625,7.28765625 3.344375,7.0921875 3.42265625,6.7746875 C3.94953125,4.64734375 5.84984375,3.1615625 8.0446875,3.1615625 C10.2834375,3.1615625 12.2428125,4.74859375 12.70375,6.9353125 C12.7084375,6.9571875 12.7210937,6.97453125 12.7278125,6.9953125 C12.7375,7.02453125 12.7475,7.05171875 12.7614062,7.07875 C12.7815625,7.1184375 12.8060937,7.15328125 12.8342187,7.186875 C12.851875,7.20828125 12.8679687,7.229375 12.8885937,7.24796875 C12.9239062,7.27984375 12.963125,7.30375 13.0048437,7.32640625 C13.0264062,7.338125 13.0453125,7.3528125 13.0684375,7.361875 C13.1359375,7.3884375 13.2073437,7.4053125 13.2823437,7.4053125 L13.283125,7.4053125 C13.2834375,7.4053125 13.28375,7.40515625 13.2839062,7.40515625 C13.3240625,7.405 13.3646875,7.4009375 13.4053125,7.39265625 C13.4245312,7.38859375 13.4390625,7.3759375 13.4575,7.37015625 C13.49625,7.35796875 13.53125,7.34265625 13.56625,7.32328125 C13.5995312,7.3046875 13.6298437,7.28515625 13.6585937,7.26109375 C13.6875,7.23671875 13.7121875,7.210625 13.7360937,7.18125 C13.7601562,7.15140625 13.7809375,7.12171875 13.7989062,7.0878125 C13.8164062,7.05515625 13.8292187,7.021875 13.8403125,6.98578125 C13.8525,6.94734375 13.8601562,6.90953125 13.8640625,6.86890625 C13.8659375,6.8496875 13.8753125,6.833125 13.8753125,6.8134375 L13.8753125,4.5540625 C13.8748437,4.2271875 13.6096875,3.96203125 13.2829687,3.96203125 Z M5.80359375,8.698125 C5.47671875,8.698125 5.2115625,8.96328125 5.2115625,9.29015625 C5.2115625,9.61703125 5.47671875,9.8821875 5.80359375,9.8821875 L7.4221875,9.8821875 L7.40875,10.979375 C7.40484375,11.30625 7.6665625,11.574375 7.9934375,11.5785937 L8.00078125,11.5785937 C8.32453125,11.5785937 8.58890625,11.3184375 8.5928125,10.9939062 L8.6065625,9.88203125 L10.094375,9.88203125 C10.42125,9.88203125 10.6864063,9.616875 10.6864063,9.29 C10.6864063,8.963125 10.42125,8.69796875 10.094375,8.69796875 L8.62109375,8.69796875 L8.62515625,8.36890625 L10.0945312,8.36890625 C10.4214063,8.36890625 10.6865625,8.10375 10.6865625,7.776875 C10.6865625,7.45 10.4214063,7.18484375 10.0945312,7.18484375 L9.41078125,7.18484375 L10.4425,6.08921875 C10.666875,5.85109375 10.655625,5.47640625 10.4175,5.2525 C10.1796875,5.028125 9.8046875,5.03859375 9.58078125,5.2775 L8.031875,6.92203125 L6.41296875,5.26921875 C6.18484375,5.035625 5.809375,5.0321875 5.5759375,5.26078125 C5.3425,5.489375 5.33859375,5.864375 5.5675,6.0978125 L6.6321875,7.185 L5.80375,7.185 C5.476875,7.185 5.21171875,7.45015625 5.21171875,7.77703125 C5.21171875,8.10390625 5.476875,8.3690625 5.80375,8.3690625 L7.4409375,8.3690625 L7.436875,8.698125 L5.80359375,8.698125 L5.80359375,8.698125 Z" id="形状" fill="#FFFFFF"></path>
                            </g>
                        </g>
                    </g>
                </g>
            </g>
        </g>
    </g>
</svg>